<svg width="90" height="90" viewBox="0 0 90 90" fill="none" xmlns="http://www.w3.org/2000/svg">
<path d="M50.2012 12.8437L74.0699 28.755C74.5835 29.0974 75.0046 29.5614 75.2959 30.1056C75.5871 30.6499 75.7395 31.2577 75.7395 31.875C75.7395 32.4923 75.5871 33.1 75.2959 33.6443C75.0046 34.1885 74.5835 34.6525 74.0699 34.995L50.2012 50.91C48.661 51.937 46.8512 52.4851 44.9999 52.4851C43.1487 52.4851 41.3389 51.937 39.7987 50.91L15.9299 34.995C15.4163 34.6525 14.9952 34.1885 14.704 33.6443C14.4127 33.1 14.2603 32.4923 14.2603 31.875C14.2603 31.2577 14.4127 30.6499 14.704 30.1056C14.9952 29.5614 15.4163 29.0974 15.9299 28.755L39.7987 12.8437C41.3389 11.8166 43.1487 11.2686 44.9999 11.2686C46.8512 11.2686 48.661 11.8166 50.2012 12.8437ZM75.0974 45.72C74.541 46.6106 73.8038 47.3745 72.9337 47.9625L50.2462 63.2775C48.6966 64.3237 46.8696 64.8828 44.9999 64.8828C43.1302 64.8828 41.3032 64.3237 39.7537 63.2775L17.0662 47.9625C15.7083 47.0464 14.6877 45.7111 14.1602 44.1604C13.6327 42.6097 13.6273 40.929 14.1449 39.375L39.7987 56.475C41.2389 57.4347 42.9167 57.9771 44.6462 58.0419C46.3757 58.1068 48.0894 57.6916 49.5974 56.8425L50.1974 56.475L75.8512 39.375C76.2016 40.4227 76.3157 41.5349 76.1854 42.6319C76.0551 43.7289 75.6835 44.7835 75.0974 45.72ZM75.0974 57.9075C74.541 58.7981 73.8038 59.562 72.9337 60.15L50.2462 75.465C48.6966 76.5113 46.8696 77.0703 44.9999 77.0703C43.1302 77.0703 41.3032 76.5113 39.7537 75.465L17.0662 60.15C15.7083 59.2339 14.6877 57.8986 14.1602 56.3479C13.6327 54.7972 13.6273 53.1165 14.1449 51.5625L39.7987 68.6625C41.2389 69.6222 42.9167 70.1646 44.6462 70.2294C46.3757 70.2943 48.0894 69.8791 49.5974 69.03L50.1974 68.6625L75.8512 51.5625C76.2016 52.6102 76.3157 53.7224 76.1854 54.8194C76.0551 55.9164 75.6835 56.971 75.0974 57.9075Z" fill="url(#paint0_linear_1_191)"/>
<defs>
<linearGradient id="paint0_linear_1_191" x1="48.2286" y1="0.449346" x2="42.1679" y2="88.9607" gradientUnits="userSpaceOnUse">
<stop stop-color="#2161D5"/>
<stop offset="1" stop-color="#5C92F3"/>
</linearGradient>
</defs>
</svg>
