<svg width="20" height="20" viewBox="0 0 20 20" fill="none" xmlns="http://www.w3.org/2000/svg">
<g clip-path="url(#clip0_2_1493)">
<path d="M4.16663 4.58341C4.16663 3.80987 4.47392 3.068 5.0209 2.52102C5.56788 1.97404 6.30974 1.66675 7.08329 1.66675H9.99996V7.50008H7.08329C6.30974 7.50008 5.56788 7.19279 5.0209 6.64581C4.47392 6.09883 4.16663 5.35696 4.16663 4.58341Z" stroke="#6A7187" stroke-width="2" stroke-linecap="round" stroke-linejoin="round"/>
<path d="M10 1.66675H12.9167C13.2997 1.66675 13.679 1.74219 14.0328 1.88877C14.3867 2.03534 14.7082 2.25018 14.9791 2.52102C15.2499 2.79186 15.4647 3.11339 15.6113 3.46725C15.7579 3.82112 15.8333 4.20039 15.8333 4.58341C15.8333 4.96644 15.7579 5.34571 15.6113 5.69958C15.4647 6.05344 15.2499 6.37497 14.9791 6.64581C14.7082 6.91665 14.3867 7.13149 14.0328 7.27806C13.679 7.42464 13.2997 7.50008 12.9167 7.50008H10V1.66675Z" stroke="#6A7187" stroke-width="2" stroke-linecap="round" stroke-linejoin="round"/>
<path d="M10 10.4167C10 10.0336 10.0754 9.65437 10.222 9.30051C10.3686 8.94664 10.5834 8.62511 10.8543 8.35427C11.1251 8.08343 11.4466 7.86859 11.8005 7.72202C12.1544 7.57544 12.5336 7.5 12.9167 7.5C13.2997 7.5 13.679 7.57544 14.0328 7.72202C14.3867 7.86859 14.7082 8.08343 14.9791 8.35427C15.2499 8.62511 15.4647 8.94664 15.6113 9.30051C15.7579 9.65437 15.8333 10.0336 15.8333 10.4167C15.8333 10.7997 15.7579 11.179 15.6113 11.5328C15.4647 11.8867 15.2499 12.2082 14.9791 12.4791C14.7082 12.7499 14.3867 12.9647 14.0328 13.1113C13.679 13.2579 13.2997 13.3333 12.9167 13.3333C12.5336 13.3333 12.1544 13.2579 11.8005 13.1113C11.4466 12.9647 11.1251 12.7499 10.8543 12.4791C10.5834 12.2082 10.3686 11.8867 10.222 11.5328C10.0754 11.179 10 10.7997 10 10.4167V10.4167Z" stroke="#6A7187" stroke-width="2" stroke-linecap="round" stroke-linejoin="round"/>
<path d="M4.16663 16.2499C4.16663 15.4764 4.47392 14.7345 5.0209 14.1875C5.56788 13.6405 6.30974 13.3333 7.08329 13.3333H9.99996V16.2499C9.99996 17.0235 9.69267 17.7653 9.14569 18.3123C8.59871 18.8593 7.85684 19.1666 7.08329 19.1666C6.30974 19.1666 5.56788 18.8593 5.0209 18.3123C4.47392 17.7653 4.16663 17.0235 4.16663 16.2499Z" stroke="#6A7187" stroke-width="2" stroke-linecap="round" stroke-linejoin="round"/>
<path d="M4.16663 10.4167C4.16663 9.64312 4.47392 8.90125 5.0209 8.35427C5.56788 7.80729 6.30974 7.5 7.08329 7.5H9.99996V13.3333H7.08329C6.30974 13.3333 5.56788 13.026 5.0209 12.4791C4.47392 11.9321 4.16663 11.1902 4.16663 10.4167Z" stroke="#6A7187" stroke-width="2" stroke-linecap="round" stroke-linejoin="round"/>
</g>
<defs>
<clipPath id="clip0_2_1493">
<rect width="20" height="20" fill="white"/>
</clipPath>
</defs>
</svg>
