<svg width="20" height="20" viewBox="0 0 20 20" fill="none" xmlns="http://www.w3.org/2000/svg">
<g clip-path="url(#clip0_2_1449)">
<path d="M10 17.5C14.1421 17.5 17.5 14.1421 17.5 10C17.5 5.85786 14.1421 2.5 10 2.5C5.85786 2.5 2.5 5.85786 2.5 10C2.5 14.1421 5.85786 17.5 10 17.5Z" stroke="white" stroke-width="2" stroke-linecap="round" stroke-linejoin="round"/>
<path d="M9.99996 10.8334C10.4602 10.8334 10.8333 10.4603 10.8333 10.0001C10.8333 9.53984 10.4602 9.16675 9.99996 9.16675C9.53972 9.16675 9.16663 9.53984 9.16663 10.0001C9.16663 10.4603 9.53972 10.8334 9.99996 10.8334Z" stroke="white" stroke-width="2" stroke-linecap="round" stroke-linejoin="round"/>
<path d="M11.175 8.82508L13.3334 6.66675" stroke="white" stroke-width="2" stroke-linecap="round" stroke-linejoin="round"/>
<path d="M5.83337 9.99992C5.83337 8.89485 6.27236 7.83504 7.05376 7.05364C7.83516 6.27224 8.89497 5.83325 10 5.83325" stroke="white" stroke-width="2" stroke-linecap="round" stroke-linejoin="round"/>
</g>
<defs>
<clipPath id="clip0_2_1449">
<rect width="20" height="20" fill="white"/>
</clipPath>
</defs>
</svg>
