<svg width="90" height="90" viewBox="0 0 90 90" fill="none" xmlns="http://www.w3.org/2000/svg">
<path d="M53.1375 51.4125L58.3875 42.3375C58.725 41.775 58.575 41.0625 58.0875 40.65L52.5375 36.3C52.65 35.475 52.725 34.6125 52.725 33.75C52.725 32.8875 52.65 32.025 52.5375 31.1625L58.0875 26.8125C58.575 26.4 58.725 25.6875 58.3875 25.125L53.1375 16.05C52.8 15.4875 52.125 15.2625 51.525 15.4875L45 18.1125C43.65 17.0625 42.1875 16.2 40.575 15.525L39.6 8.5875C39.5371 8.28421 39.3729 8.01133 39.1344 7.81371C38.8959 7.61608 38.5972 7.50545 38.2875 7.5H27.7875C27.15 7.5 26.5875 7.9875 26.475 8.625L25.5 15.5625C23.925 16.2375 22.425 17.1 21.075 18.15L14.55 15.525C13.95 15.3 13.275 15.525 12.9375 16.0875L7.68751 25.1625C7.35001 25.725 7.50001 26.4375 7.98751 26.85L13.5375 31.2C13.425 32.025 13.35 32.8875 13.35 33.75C13.35 34.6125 13.425 35.475 13.5375 36.3375L7.98751 40.6875C7.50001 41.1 7.35001 41.8125 7.68751 42.375L12.9375 51.45C13.275 52.0125 13.95 52.2375 14.55 52.0125L21.075 49.3875C22.425 50.4375 23.8875 51.3 25.5 51.975L26.475 58.9125C26.5875 59.5125 27.15 60 27.7875 60H38.2875C38.925 60 39.4875 59.5125 39.6 58.875L40.575 51.9375C42.15 51.2625 43.65 50.4 45 49.35L51.525 51.975C52.125 52.2 52.8 51.975 53.1375 51.4125ZM33.0375 41.25C28.9125 41.25 25.5375 37.875 25.5375 33.75C25.5375 29.625 28.9125 26.25 33.0375 26.25C37.1625 26.25 40.5375 29.625 40.5375 33.75C40.5375 37.875 37.1625 41.25 33.0375 41.25ZM82.2 70.0125L78.6 67.2375C78.675 66.7125 78.75 66.15 78.75 65.5875C78.75 65.025 78.7125 64.4625 78.6 63.9375L82.1625 61.1625C82.4625 60.9 82.575 60.45 82.35 60.075L78.975 54.2625C78.7875 53.8875 78.3375 53.775 77.925 53.8875L73.7625 55.575C72.9 54.9 71.9625 54.3375 70.9125 53.925L70.275 49.5C70.2602 49.2996 70.1714 49.1118 70.0258 48.9732C69.8803 48.8346 69.6884 48.755 69.4875 48.75H62.775C62.3625 48.75 61.9875 49.05 61.95 49.4625L61.3125 53.8875C60.3 54.3375 59.325 54.8625 58.4625 55.5375L54.3 53.85C54.1089 53.7781 53.8985 53.7764 53.7063 53.845C53.514 53.9137 53.3523 54.0483 53.25 54.225L49.875 60.0375C49.6875 60.4125 49.725 60.8625 50.0625 61.125L53.625 63.9C53.4704 64.9946 53.4704 66.1054 53.625 67.2L50.0625 69.975C49.7625 70.2375 49.65 70.6875 49.875 71.0625L53.25 76.875C53.4375 77.25 53.8875 77.3625 54.3 77.25L58.4625 75.5625C59.325 76.2375 60.2625 76.8 61.3125 77.2125L61.95 81.6375C62.025 82.05 62.3625 82.35 62.775 82.35H69.4875C69.9 82.35 70.275 82.05 70.3125 81.6375L70.95 77.2125C71.9625 76.7625 72.9375 76.2375 73.7625 75.5625L77.9625 77.25C78.3375 77.4 78.7875 77.25 79.0125 76.875L82.3875 71.0625C82.6125 70.725 82.5 70.275 82.2 70.0125ZM66.1125 70.6125C64.7694 70.612 63.4814 70.078 62.532 69.1278C61.5826 68.1777 61.0495 66.8894 61.05 65.5462C61.0505 64.2031 61.5846 62.9151 62.5347 61.9657C63.4848 61.0163 64.7731 60.4833 66.1163 60.4837C67.4594 60.4842 68.7474 61.0183 69.6968 61.9684C70.6462 62.9185 71.1793 64.2068 71.1788 65.55C71.1783 66.8932 70.6442 68.1811 69.6941 69.1305C68.744 70.0799 67.4557 70.613 66.1125 70.6125Z" fill="url(#paint0_linear_1_184)"/>
<defs>
<linearGradient id="paint0_linear_1_184" x1="48.8828" y1="-4.80693" x2="42.347" y2="95.9234" gradientUnits="userSpaceOnUse">
<stop stop-color="#2161D5"/>
<stop offset="1" stop-color="#5C92F3"/>
</linearGradient>
</defs>
</svg>
