<svg width="90" height="90" viewBox="0 0 90 90" fill="none" xmlns="http://www.w3.org/2000/svg">
<path d="M60.4688 28.125H29.5312C28.7546 28.125 28.125 28.7546 28.125 29.5312V60.4688C28.125 61.2454 28.7546 61.875 29.5312 61.875H60.4688C61.2454 61.875 61.875 61.2454 61.875 60.4688V29.5312C61.875 28.7546 61.2454 28.125 60.4688 28.125Z" fill="url(#paint0_linear_1_176)"/>
<path d="M81.5625 33.75C82.3084 33.75 83.0238 33.4537 83.5512 32.9262C84.0787 32.3988 84.375 31.6834 84.375 30.9375C84.375 30.1916 84.0787 29.4762 83.5512 28.9488C83.0238 28.4213 82.3084 28.125 81.5625 28.125H78.75V22.5C78.7467 19.5173 77.5604 16.6577 75.4514 14.5486C73.3423 12.4396 70.4827 11.2533 67.5 11.25H61.875V8.4375C61.875 7.69158 61.5787 6.97621 61.0512 6.44876C60.5238 5.92132 59.8084 5.625 59.0625 5.625C58.3166 5.625 57.6012 5.92132 57.0738 6.44876C56.5463 6.97621 56.25 7.69158 56.25 8.4375V11.25H47.8125V8.4375C47.8125 7.69158 47.5162 6.97621 46.9887 6.44876C46.4613 5.92132 45.7459 5.625 45 5.625C44.2541 5.625 43.5387 5.92132 43.0113 6.44876C42.4838 6.97621 42.1875 7.69158 42.1875 8.4375V11.25H33.75V8.4375C33.75 7.69158 33.4537 6.97621 32.9262 6.44876C32.3988 5.92132 31.6834 5.625 30.9375 5.625C30.1916 5.625 29.4762 5.92132 28.9488 6.44876C28.4213 6.97621 28.125 7.69158 28.125 8.4375V11.25H22.5C19.5173 11.2533 16.6577 12.4396 14.5486 14.5486C12.4396 16.6577 11.2533 19.5173 11.25 22.5V28.125H8.4375C7.69158 28.125 6.97621 28.4213 6.44876 28.9488C5.92132 29.4762 5.625 30.1916 5.625 30.9375C5.625 31.6834 5.92132 32.3988 6.44876 32.9262C6.97621 33.4537 7.69158 33.75 8.4375 33.75H11.25V42.1875H8.4375C7.69158 42.1875 6.97621 42.4838 6.44876 43.0113C5.92132 43.5387 5.625 44.2541 5.625 45C5.625 45.7459 5.92132 46.4613 6.44876 46.9887C6.97621 47.5162 7.69158 47.8125 8.4375 47.8125H11.25V56.25H8.4375C7.69158 56.25 6.97621 56.5463 6.44876 57.0738C5.92132 57.6012 5.625 58.3166 5.625 59.0625C5.625 59.8084 5.92132 60.5238 6.44876 61.0512C6.97621 61.5787 7.69158 61.875 8.4375 61.875H11.25V67.5C11.2533 70.4827 12.4396 73.3423 14.5486 75.4514C16.6577 77.5604 19.5173 78.7467 22.5 78.75H28.125V81.5625C28.125 82.3084 28.4213 83.0238 28.9488 83.5512C29.4762 84.0787 30.1916 84.375 30.9375 84.375C31.6834 84.375 32.3988 84.0787 32.9262 83.5512C33.4537 83.0238 33.75 82.3084 33.75 81.5625V78.75H42.1875V81.5625C42.1875 82.3084 42.4838 83.0238 43.0113 83.5512C43.5387 84.0787 44.2541 84.375 45 84.375C45.7459 84.375 46.4613 84.0787 46.9887 83.5512C47.5162 83.0238 47.8125 82.3084 47.8125 81.5625V78.75H56.25V81.5625C56.25 82.3084 56.5463 83.0238 57.0738 83.5512C57.6012 84.0787 58.3166 84.375 59.0625 84.375C59.8084 84.375 60.5238 84.0787 61.0512 83.5512C61.5787 83.0238 61.875 82.3084 61.875 81.5625V78.75H67.5C70.4827 78.7467 73.3423 77.5604 75.4514 75.4514C77.5604 73.3423 78.7467 70.4827 78.75 67.5V61.875H81.5625C82.3084 61.875 83.0238 61.5787 83.5512 61.0512C84.0787 60.5238 84.375 59.8084 84.375 59.0625C84.375 58.3166 84.0787 57.6012 83.5512 57.0738C83.0238 56.5463 82.3084 56.25 81.5625 56.25H78.75V47.8125H81.5625C82.3084 47.8125 83.0238 47.5162 83.5512 46.9887C84.0787 46.4613 84.375 45.7459 84.375 45C84.375 44.2541 84.0787 43.5387 83.5512 43.0113C83.0238 42.4838 82.3084 42.1875 81.5625 42.1875H78.75V33.75H81.5625ZM67.5 61.875C67.5 63.3668 66.9074 64.7976 65.8525 65.8525C64.7976 66.9074 63.3668 67.5 61.875 67.5H28.125C26.6332 67.5 25.2024 66.9074 24.1475 65.8525C23.0926 64.7976 22.5 63.3668 22.5 61.875V28.125C22.5 26.6332 23.0926 25.2024 24.1475 24.1475C25.2024 23.0926 26.6332 22.5 28.125 22.5H61.875C63.3668 22.5 64.7976 23.0926 65.8525 24.1475C66.9074 25.2024 67.5 26.6332 67.5 28.125V61.875Z" fill="url(#paint1_linear_1_176)"/>
<defs>
<linearGradient id="paint0_linear_1_176" x1="46.7446" y1="22.5758" x2="43.7917" y2="67.9945" gradientUnits="userSpaceOnUse">
<stop stop-color="#2161D5"/>
<stop offset="1" stop-color="#5C92F3"/>
</linearGradient>
<linearGradient id="paint1_linear_1_176" x1="49.0707" y1="-7.32317" x2="42.1806" y2="98.6538" gradientUnits="userSpaceOnUse">
<stop stop-color="#2161D5"/>
<stop offset="1" stop-color="#5C92F3"/>
</linearGradient>
</defs>
</svg>
