<svg width="20" height="20" viewBox="0 0 20 20" fill="none" xmlns="http://www.w3.org/2000/svg">
<g clip-path="url(#clip0_2_1464)">
<path d="M12.9166 15.8333H11.6666V17.0833C11.6666 17.7749 12.225 18.3333 12.9166 18.3333C13.6083 18.3333 14.1666 17.7749 14.1666 17.0833C14.1666 16.3916 13.6083 15.8333 12.9166 15.8333Z" stroke="#6A7187" stroke-width="2" stroke-linecap="round" stroke-linejoin="round"/>
<path d="M7.91663 11.6667C8.60829 11.6667 9.16663 12.2251 9.16663 12.9167V17.0834C9.16663 17.7751 8.60829 18.3334 7.91663 18.3334C7.22496 18.3334 6.66663 17.7751 6.66663 17.0834V12.9167C6.66663 12.2251 7.22496 11.6667 7.91663 11.6667Z" stroke="#6A7187" stroke-width="2" stroke-linecap="round" stroke-linejoin="round"/>
<path d="M2.91663 11.6667H4.16663V12.9167C4.16663 13.6084 3.60829 14.1667 2.91663 14.1667C2.22496 14.1667 1.66663 13.6084 1.66663 12.9167C1.66663 12.2251 2.22496 11.6667 2.91663 11.6667Z" stroke="#6A7187" stroke-width="2" stroke-linecap="round" stroke-linejoin="round"/>
<path d="M11.6666 12.0833C11.6666 11.3916 12.225 10.8333 12.9166 10.8333H17.0833C17.775 10.8333 18.3333 11.3916 18.3333 12.0833C18.3333 12.7749 17.775 13.3333 17.0833 13.3333H12.9166C12.225 13.3333 11.6666 12.7749 11.6666 12.0833Z" stroke="#6A7187" stroke-width="2" stroke-linecap="round" stroke-linejoin="round"/>
<path d="M8.33329 7.91675C8.33329 7.22508 7.77496 6.66675 7.08329 6.66675H2.91663C2.22496 6.66675 1.66663 7.22508 1.66663 7.91675C1.66663 8.60841 2.22496 9.16675 2.91663 9.16675H7.08329C7.77496 9.16675 8.33329 8.60841 8.33329 7.91675Z" stroke="#6A7187" stroke-width="2" stroke-linecap="round" stroke-linejoin="round"/>
<path d="M17.0834 8.33325H15.8334V7.08325C15.8334 6.39159 16.3917 5.83325 17.0834 5.83325C17.775 5.83325 18.3334 6.39159 18.3334 7.08325C18.3334 7.77492 17.775 8.33325 17.0834 8.33325Z" stroke="#6A7187" stroke-width="2" stroke-linecap="round" stroke-linejoin="round"/>
<path d="M12.0834 8.33341C11.3917 8.33341 10.8334 7.77508 10.8334 7.08341V2.91675C10.8334 2.22508 11.3917 1.66675 12.0834 1.66675C12.775 1.66675 13.3334 2.22508 13.3334 2.91675V7.08341C13.3334 7.77508 12.775 8.33341 12.0834 8.33341Z" stroke="#6A7187" stroke-width="2" stroke-linecap="round" stroke-linejoin="round"/>
<path d="M7.08337 4.16675H8.33337V2.91675C8.33337 2.22508 7.77504 1.66675 7.08337 1.66675C6.39171 1.66675 5.83337 2.22508 5.83337 2.91675C5.83337 3.60841 6.39171 4.16675 7.08337 4.16675Z" stroke="#6A7187" stroke-width="2" stroke-linecap="round" stroke-linejoin="round"/>
</g>
<defs>
<clipPath id="clip0_2_1464">
<rect width="20" height="20" fill="white"/>
</clipPath>
</defs>
</svg>
